<svg width="196" height="152" viewBox="0 0 196 152" fill="none" xmlns="http://www.w3.org/2000/svg">
  <g clip-path="url(#clip0)">
    <path d="M190.764 86.0118C181.99 70.9246 158.781 60.2085 131.327 60.2085C103.873 60.2085 80.6643 70.9246 71.8903 86.0118H68.0693V99.125C68.0693 120.557 96.3726 138.042 131.327 138.042C166.282 138.042 194.585 120.557 194.585 99.125V86.0118H190.764Z" fill="#CECECE" stroke="black" stroke-width="2" stroke-miterlimit="10" stroke-linecap="round" stroke-linejoin="round"/>
    <path d="M131.327 139.028C95.9479 139.028 67.0786 121.121 67.0786 99.1247V85.0245H71.3241C80.6642 69.5143 104.722 59.2212 131.327 59.2212C157.932 59.2212 181.99 69.5143 191.33 85.0245H195.575V99.1247C195.434 121.121 166.706 139.028 131.327 139.028ZM69.0598 86.9986V99.1247C69.0598 119.993 96.9385 137.054 131.185 137.054C165.432 137.054 193.311 119.993 193.311 99.1247V86.9986H189.915L189.632 86.4346C180.858 71.3474 157.224 61.1952 131.044 61.1952C104.863 61.1952 81.2302 71.3474 72.4562 86.4346L72.1732 86.9986H69.0598Z" fill="#16110D"/>
    <path d="M194.443 86.0117C194.443 107.444 166.14 124.928 131.185 124.928C96.231 124.928 67.9277 107.444 67.9277 86.0117C67.9277 64.5794 96.231 47.0952 131.185 47.0952C166.14 47.0952 194.443 64.5794 194.443 86.0117Z" fill="#B72126"/>
    <path d="M131.327 125.21C166.263 125.21 194.585 107.786 194.585 86.2935C194.585 64.8005 166.263 47.377 131.327 47.377C96.3908 47.377 68.0693 64.8005 68.0693 86.2935C68.0693 107.786 96.3908 125.21 131.327 125.21Z" fill="white"/>
    <path d="M131.327 125.915C95.9479 125.915 67.0786 108.008 67.0786 86.0114C67.0786 64.0151 95.9479 46.1079 131.327 46.1079C166.706 46.1079 195.575 64.0151 195.575 86.0114C195.434 108.008 166.706 125.915 131.327 125.915ZM131.327 48.0819C97.0801 48.0819 69.2014 65.1432 69.2014 86.0114C69.2014 106.88 97.0801 123.941 131.327 123.941C165.574 123.941 193.453 106.88 193.453 86.0114C193.453 65.1432 165.574 48.0819 131.327 48.0819Z" fill="#16110D" stroke="black" stroke-width="0.75" stroke-miterlimit="10"/>
    <path d="M131.327 113.648C159.229 113.648 181.848 100.517 181.848 84.3196C181.848 68.122 159.229 54.9912 131.327 54.9912C103.425 54.9912 80.8057 68.122 80.8057 84.3196C80.8057 100.517 103.425 113.648 131.327 113.648Z" fill="#CECECE" stroke="black" stroke-width="2" stroke-miterlimit="10" stroke-linecap="round" stroke-linejoin="round"/>
    <path d="M131.327 114.494C102.882 114.494 79.8149 100.958 79.8149 84.1787C79.8149 67.5405 102.882 53.8633 131.327 53.8633C159.772 53.8633 182.839 67.3995 182.839 84.1787C182.697 100.958 159.63 114.494 131.327 114.494ZM131.327 55.9783C104.014 55.9783 81.9377 68.6685 81.9377 84.1787C81.9377 99.8299 104.156 112.379 131.327 112.379C158.498 112.379 180.716 99.6889 180.716 84.1787C180.716 68.6685 158.498 55.9783 131.327 55.9783Z" fill="#16110D"/>
    <path d="M131.327 54.9912C103.448 54.9912 80.8057 68.1044 80.8057 84.3196C80.8057 85.7296 81.0887 87.1396 81.3717 88.5497C85.0512 74.3085 105.854 63.4513 131.327 63.4513C156.8 63.4513 177.603 74.3085 181.141 88.4087C181.424 86.9986 181.707 85.5886 181.707 84.1786C181.707 68.1044 159.206 54.9912 131.327 54.9912Z" fill="#CECECE" stroke="black" stroke-width="2" stroke-miterlimit="10" stroke-linecap="round" stroke-linejoin="round"/>
    <path d="M180.575 90.6644L180.15 88.8314C176.612 75.0132 155.668 64.579 131.327 64.579C106.986 64.579 85.9002 75.0132 82.5038 88.8314L81.9378 91.0874L80.5226 88.8314C80.0981 87.1393 79.9565 85.7293 79.9565 84.3193C79.9565 67.6811 103.024 54.0039 131.468 54.0039C159.913 54.0039 182.98 67.5401 182.98 84.3193C182.98 85.7293 182.839 87.1393 182.414 88.8314L180.575 90.6644ZM131.327 55.9779C104.014 55.9779 81.9378 68.6681 81.9378 84.1783V84.3193C88.1645 71.3471 107.977 62.323 131.327 62.323C154.677 62.323 174.631 71.3471 180.716 84.3193V84.1783C180.716 68.6681 158.498 55.9779 131.327 55.9779Z" fill="#16110D"/>
    <path d="M158.073 94.3307C158.073 91.9337 156.8 89.5366 154.819 87.4216L152.271 71.6294L137.412 80.3715C133.591 79.9485 130.053 79.9485 126.232 80.3715L111.515 71.6294L109.109 87.4216C106.986 89.5366 105.854 91.9337 105.712 94.3307V94.4717V95.4587L106.986 96.1637H107.552C113.071 95.4587 117.883 95.5997 121.704 96.5867C121.279 97.0097 121.138 97.4327 121.138 97.9967C121.138 99.5478 122.836 100.676 124.959 100.676C126.232 100.676 127.223 100.253 127.93 99.6888C129.346 101.24 129.77 103.214 128.921 105.47C128.355 105.893 128.072 106.598 128.072 107.162C128.072 108.713 129.77 109.841 131.893 109.841C134.016 109.841 135.714 108.713 135.714 107.162C135.714 106.457 135.431 105.893 134.865 105.47C134.157 103.214 134.44 101.24 135.855 99.6888C136.563 100.253 137.554 100.676 138.827 100.676C140.95 100.676 142.648 99.5478 142.648 97.9967C142.648 97.4327 142.365 97.0097 142.082 96.5867C145.903 95.7407 150.715 95.5997 156.234 96.3047H156.8L158.073 95.5997V94.7537V94.3307ZM145.903 82.3455L146.469 82.0635L146.611 82.6275C146.328 82.4865 146.186 82.4865 145.903 82.3455ZM117.317 82.4865L117.458 82.0635L117.883 82.3455C117.6 82.3455 117.458 82.4865 117.317 82.4865ZM158.215 89.8186H105.854V95.5997H158.215V89.8186Z" fill="black"/>
    <path d="M142.648 91.6514H120.996V97.9964H142.648V91.6514Z" fill="black"/>
    <path d="M157.507 90.1007C157.507 87.8446 156.234 85.7296 154.111 83.8966L151.847 69.9374L138.12 77.5515C136.138 77.2695 134.157 77.1285 132.034 77.1285C129.912 77.1285 127.789 77.2695 125.949 77.5515L112.222 69.7964L109.958 83.6146C107.835 85.4476 106.703 87.7036 106.562 89.9597V90.1007C114.628 89.1136 121.704 89.6777 126.374 92.0747C130.761 94.3307 131.893 97.8558 130.336 101.663C129.912 101.945 129.629 102.227 129.629 102.509C129.629 103.214 130.619 103.637 132.034 103.637C133.308 103.637 134.44 103.073 134.44 102.509C134.44 102.227 134.157 101.945 133.733 101.663C132.176 97.7148 133.308 94.1897 137.695 92.0747C142.224 89.6777 149.582 89.2546 157.649 90.1007H157.79C157.507 90.2417 157.507 90.1007 157.507 90.1007ZM114.769 80.5125L115.619 75.1545L121.138 78.2565C118.873 78.9615 116.609 79.6665 114.769 80.5125ZM142.648 78.3975L148.309 75.1545L149.158 80.5125C147.177 79.8075 145.054 78.9615 142.648 78.3975Z" fill="white" stroke="black" stroke-width="1.0923" stroke-miterlimit="10"/>
    <path d="M124.534 92.3569C123.261 92.3569 122.128 92.9209 122.128 93.485C122.128 94.19 123.119 94.613 124.534 94.613C125.808 94.613 126.94 94.049 126.94 93.485C126.94 92.9209 125.949 92.3569 124.534 92.3569Z" fill="white"/>
    <path d="M139.11 92.3569C137.836 92.3569 136.704 92.9209 136.704 93.485C136.704 94.19 137.695 94.613 139.11 94.613C140.384 94.613 141.516 94.049 141.516 93.485C141.516 92.9209 140.384 92.3569 139.11 92.3569Z" fill="white"/>
    <path d="M185.103 63.1695C176.329 48.0824 153.121 37.3662 125.666 37.3662C98.2123 37.3662 75.0036 48.0824 66.2296 63.1695H62.4087V76.2827C62.4087 97.715 90.7119 115.199 125.666 115.199C160.621 115.199 188.924 97.715 188.924 76.2827V63.1695H185.103Z" fill="#CECECE" stroke="black" stroke-width="2" stroke-miterlimit="10" stroke-linecap="round" stroke-linejoin="round"/>
    <path d="M125.666 116.327C90.2873 116.327 61.418 98.4197 61.418 76.4234V62.3232H65.6635C75.0035 46.813 99.0613 36.3789 125.666 36.3789C152.271 36.3789 176.329 46.672 185.669 62.1822H189.915V76.2824C189.773 98.4197 161.045 116.327 125.666 116.327ZM63.3992 64.2973V76.4234C63.3992 97.2917 91.2779 114.212 125.666 114.212C159.913 114.212 187.792 97.1507 187.792 76.2824V64.1563H184.396L184.113 63.5923C175.339 48.5051 151.705 38.3529 125.525 38.3529C99.3443 38.3529 75.7111 48.5051 66.9371 63.5923L66.6541 64.1563H63.3992V64.2973Z" fill="#16110D"/>
    <path d="M188.783 63.169C188.783 84.6012 160.479 102.085 125.525 102.085C90.5703 102.085 62.2671 84.6012 62.2671 63.169C62.2671 41.7367 90.5703 24.2524 125.525 24.2524C160.479 24.2524 188.783 41.7367 188.783 63.169Z" fill="#B72126"/>
    <path d="M125.666 102.368C160.603 102.368 188.924 84.9442 188.924 63.4512C188.924 41.9582 160.603 24.5347 125.666 24.5347C90.7302 24.5347 62.4087 41.9582 62.4087 63.4512C62.4087 84.9442 90.7302 102.368 125.666 102.368Z" fill="white"/>
    <path d="M125.666 103.214C90.2873 103.214 61.418 85.3065 61.418 63.3103C61.418 41.314 90.2873 23.4067 125.666 23.4067C161.045 23.4067 189.915 41.314 189.915 63.3103C189.773 85.3065 161.045 103.214 125.666 103.214ZM125.666 25.3808C91.2779 25.3808 63.3992 42.301 63.3992 63.1693C63.3992 84.0375 91.2779 101.099 125.525 101.099C159.772 101.099 187.65 84.0375 187.65 63.1693C187.792 42.301 159.913 25.3808 125.666 25.3808Z" fill="#16110D" stroke="black" stroke-width="0.75" stroke-miterlimit="10"/>
    <path d="M125.666 90.8062C153.568 90.8062 176.188 77.6754 176.188 61.4778C176.188 45.2802 153.568 32.1494 125.666 32.1494C97.7642 32.1494 75.145 45.2802 75.145 61.4778C75.145 77.6754 97.7642 90.8062 125.666 90.8062Z" fill="#CECECE" stroke="black" stroke-width="2" stroke-miterlimit="10" stroke-linecap="round" stroke-linejoin="round"/>
    <path d="M125.666 91.7929C97.2214 91.7929 74.1543 78.2567 74.1543 61.4775C74.1543 44.8393 97.2214 31.1621 125.666 31.1621C154.111 31.1621 177.178 44.6983 177.178 61.4775C177.037 78.1157 153.969 91.7929 125.666 91.7929ZM125.666 33.2771C98.3536 33.2771 76.277 45.9673 76.277 61.4775C76.277 77.1287 98.4951 89.6779 125.666 89.6779C152.837 89.6779 175.055 76.9877 175.055 61.4775C175.055 45.8263 152.837 33.2771 125.666 33.2771Z" fill="#16110D"/>
    <path d="M125.666 32.1494C97.7876 32.1494 75.145 45.2626 75.145 61.4778C75.145 62.8878 75.4281 64.2978 75.7111 65.7079C79.249 51.6077 100.193 40.7505 125.525 40.7505C150.856 40.7505 171.801 51.6077 175.339 65.7079C175.622 64.2978 175.905 62.8878 175.905 61.4778C176.046 45.2626 153.545 32.1494 125.666 32.1494Z" fill="#CECECE" stroke="black" stroke-width="2" stroke-miterlimit="10" stroke-linecap="round" stroke-linejoin="round"/>
    <path d="M174.914 67.8226L174.489 65.9896C171.093 52.1714 150.007 41.7372 125.666 41.7372C101.326 41.7372 80.2396 52.1714 76.8432 65.9896L76.2771 68.2456L74.862 65.9896C74.4374 64.2975 74.2959 62.8875 74.2959 61.4775C74.2959 44.8393 97.3631 31.1621 125.808 31.1621C154.253 31.1621 177.32 44.6983 177.32 61.4775C177.32 62.8875 177.178 64.2975 176.754 65.9896L174.914 67.8226ZM125.666 33.2771C98.3537 33.2771 76.2771 45.9673 76.2771 61.4775V61.6185C82.5038 48.6463 102.316 39.6222 125.666 39.6222C149.016 39.6222 168.97 48.6463 175.055 61.6185V61.4775C175.055 45.8263 152.837 33.2771 125.666 33.2771Z" fill="#16110D"/>
    <path d="M152.413 71.6295C152.413 69.2325 151.14 66.8355 149.158 64.7204L146.611 48.9282L131.752 57.6703C127.931 57.2473 124.393 57.2473 120.572 57.6703L105.854 48.9282L103.307 64.5794C101.184 66.6945 100.052 69.0915 99.9106 71.4885V71.6295V72.6165L101.184 73.3215H101.75C107.269 72.6165 112.081 72.7575 115.902 73.7446C115.477 74.1676 115.336 74.5906 115.336 75.1546C115.336 76.7056 117.034 77.8336 119.157 77.8336C120.43 77.8336 121.421 77.4106 122.129 76.8466C123.544 78.3976 123.968 80.3716 123.119 82.6277C122.553 83.0507 122.27 83.7557 122.27 84.3197C122.27 85.8707 123.968 86.9987 126.091 86.9987C128.214 86.9987 129.912 85.8707 129.912 84.3197C129.912 83.6147 129.629 83.0507 129.063 82.6277C128.355 80.3716 128.638 78.3976 130.054 76.8466C130.761 77.4106 131.752 77.8336 133.025 77.8336C135.148 77.8336 136.846 76.7056 136.846 75.1546C136.846 74.5906 136.563 74.1676 136.28 73.7446C140.101 72.8985 144.913 72.7575 150.432 73.4625H150.998L152.272 72.7575V71.9115L152.413 71.6295ZM140.243 59.6444L140.809 59.3624L140.95 59.9264C140.667 59.7854 140.526 59.6444 140.243 59.6444ZM111.656 59.7854L111.798 59.2214L112.223 59.5034C111.94 59.6444 111.798 59.6444 111.656 59.7854ZM152.555 66.9765H100.194V72.7575H152.555V66.9765Z" fill="black"/>
    <path d="M136.988 68.8096H115.336V75.1547H136.988V68.8096Z" fill="black"/>
    <path d="M151.847 67.2585C151.847 65.0024 150.574 62.8874 148.451 61.0544L146.187 47.0952L132.459 54.8503C130.478 54.5683 128.497 54.4273 126.374 54.4273C124.252 54.4273 122.129 54.5683 120.289 54.8503L106.562 47.0952L104.298 60.9134C102.175 62.7464 101.043 65.0024 100.901 67.2585V67.3995C108.968 66.4125 116.044 66.9765 120.714 69.3735C125.101 71.6295 126.233 75.1546 124.676 78.9616C124.252 79.2436 123.969 79.5256 123.969 79.8076C123.969 80.5126 124.959 80.9357 126.374 80.9357C127.648 80.9357 128.78 80.3716 128.78 79.8076C128.78 79.5256 128.497 79.2436 128.072 78.9616C126.516 75.0136 127.648 71.4885 132.035 69.3735C136.563 66.9765 143.922 66.5535 151.989 67.3995H152.13C151.847 67.3995 151.847 67.3995 151.847 67.2585ZM109.109 57.8114L109.958 52.4533L115.478 55.5553C113.213 56.1193 110.949 56.8243 109.109 57.8114ZM136.988 55.6963L142.649 52.4533L143.498 57.8114C141.517 56.9653 139.394 56.2603 136.988 55.6963Z" fill="white" stroke="black" stroke-width="1.0923" stroke-miterlimit="10"/>
    <path d="M118.874 69.5146C117.6 69.5146 116.468 70.0787 116.468 70.6427C116.468 71.3477 117.459 71.7707 118.874 71.7707C120.148 71.7707 121.28 71.2067 121.28 70.6427C121.28 70.0787 120.289 69.5146 118.874 69.5146Z" fill="white"/>
    <path d="M133.45 69.5146C132.176 69.5146 131.044 70.0787 131.044 70.6427C131.044 71.3477 132.035 71.7707 133.45 71.7707C134.723 71.7707 135.856 71.2067 135.856 70.6427C135.856 70.0787 134.723 69.5146 133.45 69.5146Z" fill="white"/>
    <path d="M190.764 40.4684C181.99 25.3812 158.781 14.665 131.327 14.665C103.873 14.665 80.6643 25.3812 71.8903 40.4684H68.0693V53.5816C68.0693 75.0138 96.3726 92.4981 131.327 92.4981C166.282 92.4981 194.585 75.0138 194.585 53.5816V40.4684H190.764Z" fill="#CECECE" stroke="black" stroke-width="2" stroke-miterlimit="10" stroke-linecap="round" stroke-linejoin="round"/>
    <path d="M131.327 93.4848C95.9479 93.4848 67.0786 75.5775 67.0786 53.5813V39.4811H71.3241C80.6642 23.9709 104.722 13.6777 131.327 13.6777C157.932 13.6777 181.99 23.9709 191.33 39.4811H195.575V53.5813C195.434 75.5775 166.706 93.4848 131.327 93.4848ZM69.0598 41.4551V53.5813C69.0598 74.4495 96.9385 91.5107 131.185 91.5107C165.432 91.5107 193.311 74.4495 193.311 53.5813V41.4551H189.915L189.632 40.8911C180.858 25.8039 157.224 15.6518 131.044 15.6518C104.863 15.6518 81.2302 25.8039 72.4562 40.8911L72.1732 41.4551H69.0598Z" fill="#16110D"/>
    <path d="M194.443 40.4683C194.443 61.9006 166.14 79.3848 131.185 79.3848C96.231 79.3848 67.9277 61.9006 67.9277 40.4683C67.9277 19.036 96.231 1.55176 131.185 1.55176C166.14 1.55176 194.443 18.895 194.443 40.4683Z" fill="#B72126"/>
    <path d="M131.327 79.6665C166.263 79.6665 194.585 62.243 194.585 40.75C194.585 19.257 166.263 1.8335 131.327 1.8335C96.3908 1.8335 68.0693 19.257 68.0693 40.75C68.0693 62.243 96.3908 79.6665 131.327 79.6665Z" fill="white"/>
    <path d="M131.327 80.3715C95.9479 80.3715 67.0786 62.4643 67.0786 40.468C67.0786 18.4717 95.9479 0.564453 131.327 0.564453C166.706 0.564453 195.575 18.4717 195.575 40.468C195.434 62.4643 166.706 80.3715 131.327 80.3715ZM131.327 2.53848C97.0801 2.53848 69.2014 19.5997 69.2014 40.468C69.2014 61.3363 97.0801 78.3975 131.327 78.3975C165.574 78.3975 193.453 61.3363 193.453 40.468C193.453 19.5997 165.574 2.53848 131.327 2.53848Z" fill="#16110D" stroke="black" stroke-width="0.75" stroke-miterlimit="10"/>
    <path d="M131.327 67.9629C159.229 67.9629 181.848 54.8322 181.848 38.6345C181.848 22.4369 159.229 9.30615 131.327 9.30615C103.425 9.30615 80.8057 22.4369 80.8057 38.6345C80.8057 54.8322 103.425 67.9629 131.327 67.9629Z" fill="#CECECE" stroke="black" stroke-width="2" stroke-miterlimit="10" stroke-linecap="round" stroke-linejoin="round"/>
    <path d="M131.327 68.9502C102.882 68.9502 79.8149 55.4141 79.8149 38.6348C79.8149 21.9966 102.882 8.46045 131.327 8.46045C159.772 8.46045 182.839 21.9966 182.839 38.7758C182.697 55.4141 159.63 68.9502 131.327 68.9502ZM131.327 10.4345C104.014 10.4345 81.9377 23.1246 81.9377 38.6348C81.9377 54.2861 104.156 66.8352 131.327 66.8352C158.498 66.8352 180.716 54.1451 180.716 38.6348C180.716 23.1246 158.498 10.4345 131.327 10.4345Z" fill="#16110D"/>
    <path d="M131.327 9.44775C103.448 9.44775 80.8057 22.5609 80.8057 38.7761C80.8057 40.1862 81.0887 41.5962 81.3717 43.0062C84.9096 28.906 105.854 18.0489 131.185 18.0489C156.517 18.0489 177.461 28.906 180.999 43.0062C181.282 41.5962 181.565 40.1862 181.565 38.7761C181.707 22.5609 159.206 9.44775 131.327 9.44775Z" fill="#CECECE" stroke="black" stroke-width="2" stroke-miterlimit="10" stroke-linecap="round" stroke-linejoin="round"/>
    <path d="M180.575 45.1209L180.15 43.2879C176.612 29.4697 155.668 19.0356 131.327 19.0356C106.986 19.0356 85.9004 29.4697 82.504 43.2879L81.9379 45.5439L80.5228 43.2879C80.0982 41.5959 79.9567 40.1859 79.9567 38.7758C79.8152 21.9966 102.882 8.46045 131.327 8.46045C159.772 8.46045 182.839 21.9966 182.839 38.7758C182.839 40.1859 182.698 41.5959 182.273 43.2879L180.575 45.1209ZM131.327 10.4345C104.014 10.4345 81.9379 23.1246 81.9379 38.6348V38.7758C88.0231 25.9447 107.835 16.9206 131.327 16.9206C154.819 16.9206 174.631 25.9447 180.716 38.9168V38.7758C180.716 23.1246 158.498 10.4345 131.327 10.4345Z" fill="#16110D"/>
    <path d="M158.074 48.7872C158.074 46.3902 156.8 43.9932 154.819 41.8781L152.272 26.0859L137.412 34.8281C133.592 34.405 130.054 34.405 126.233 34.8281L111.515 26.0859L108.968 41.7371C106.845 43.8522 105.713 46.2492 105.571 48.6462V48.7872V49.7742L106.845 50.4793H107.411C112.93 49.7742 117.742 49.9152 121.563 50.9023C121.138 51.3253 120.997 51.7483 120.997 52.3123C120.997 53.8633 122.695 54.9913 124.818 54.9913C126.091 54.9913 127.082 54.5683 127.789 54.0043C129.205 55.5553 129.629 57.5293 128.78 59.7854C128.214 60.2084 127.931 60.9134 127.931 61.4774C127.931 63.0284 129.629 64.1564 131.752 64.1564C133.875 64.1564 135.573 63.0284 135.573 61.4774C135.573 60.7724 135.29 60.2084 134.724 59.7854C134.016 57.5293 134.299 55.5553 135.714 54.0043C136.422 54.5683 137.412 54.9913 138.686 54.9913C140.809 54.9913 142.507 53.8633 142.507 52.3123C142.507 51.7483 142.224 51.3253 141.941 50.9023C145.762 50.0562 150.573 49.9152 156.093 50.6203H156.659L157.932 49.9152V49.0692L158.074 48.7872ZM145.903 36.8021L146.47 36.5201L146.611 37.0841C146.328 36.9431 146.186 36.9431 145.903 36.8021ZM117.317 36.9431L117.459 36.5201L117.883 36.8021C117.6 36.8021 117.459 36.9431 117.317 36.9431ZM158.215 44.2752H105.854V50.0562H158.215V44.2752Z" fill="black"/>
    <path d="M142.649 46.1084H120.997V52.4535H142.649V46.1084Z" fill="black"/>
    <path d="M157.508 44.5573C157.508 42.3013 156.234 40.1863 154.111 38.3532L151.847 24.394L138.12 32.1491C136.139 31.8671 134.158 31.7261 132.035 31.7261C129.912 31.7261 127.789 31.8671 125.95 32.1491L112.222 24.394L109.675 38.0712C107.552 39.9042 106.42 42.1603 106.279 44.4163V44.5573C114.345 43.5703 121.421 44.1343 126.091 46.5313C130.478 48.7874 131.61 52.3124 130.054 56.1195C129.629 56.4015 129.346 56.6835 129.346 56.9655C129.346 57.6705 130.337 58.0935 131.752 58.0935C133.025 58.0935 134.158 57.5295 134.158 56.9655C134.158 56.6835 133.874 56.4015 133.45 56.1195C131.893 52.1714 133.025 48.6464 137.412 46.5313C141.941 44.1343 149.3 43.7113 157.366 44.5573H157.508C157.508 44.5573 157.508 44.6983 157.508 44.5573ZM114.77 34.9692L115.619 29.6111L121.138 32.7132C118.874 33.4182 116.609 34.1232 114.77 34.9692ZM142.648 32.8542L148.309 29.6111L149.158 34.9692C147.177 34.2642 145.054 33.4182 142.648 32.8542Z" fill="white"/>
    <path d="M157.508 44.5573C157.508 42.3013 156.234 40.1863 154.111 38.3532L151.847 24.394L138.12 32.1491C136.139 31.8671 134.158 31.7261 132.035 31.7261C129.912 31.7261 127.789 31.8671 125.95 32.1491L112.222 24.394L109.675 38.0712C107.552 39.9042 106.42 42.1603 106.279 44.4163V44.5573C114.345 43.5703 121.421 44.1343 126.091 46.5313C130.478 48.7874 131.61 52.3124 130.054 56.1195C129.629 56.4015 129.346 56.6835 129.346 56.9655C129.346 57.6705 130.337 58.0935 131.752 58.0935C133.025 58.0935 134.158 57.5295 134.158 56.9655C134.158 56.6835 133.874 56.4015 133.45 56.1195C131.893 52.1714 133.025 48.6464 137.412 46.5313C141.941 44.1343 149.3 43.7113 157.366 44.5573H157.508C157.508 44.6983 157.508 44.5573 157.508 44.5573ZM114.77 34.9692L115.619 29.6111L121.138 32.7132C118.874 33.4182 116.609 34.1232 114.77 34.9692ZM142.648 32.8542L148.309 29.6111L149.158 34.9692C147.177 34.2642 145.054 33.4182 142.648 32.8542Z" stroke="black" stroke-width="1.0923" stroke-miterlimit="10"/>
    <path d="M124.535 46.8135C123.261 46.8135 122.129 47.3775 122.129 47.9415C122.129 48.6465 123.12 49.0695 124.535 49.0695C125.808 49.0695 126.94 48.5055 126.94 47.9415C126.94 47.3775 125.95 46.8135 124.535 46.8135Z" fill="white"/>
    <path d="M139.11 46.8135C137.837 46.8135 136.705 47.3775 136.705 47.9415C136.705 48.6465 137.695 49.0695 139.11 49.0695C140.384 49.0695 141.516 48.5055 141.516 47.9415C141.516 47.3775 140.384 46.8135 139.11 46.8135Z" fill="white"/>
    <path d="M96.0898 47.0951C79.2494 42.583 55.0501 51.3251 35.6624 70.6424C16.2746 89.9596 7.50062 114.071 12.0291 130.85L9.34033 133.529L18.6804 142.835C33.9642 157.923 66.2299 150.308 90.9952 125.774C115.761 101.24 123.261 68.9503 108.119 53.7221L98.7786 44.416L96.0898 47.0951Z" fill="#CECECE" stroke="black" stroke-width="2" stroke-miterlimit="10" stroke-linecap="round" stroke-linejoin="round"/>
    <path d="M91.7029 126.479C66.6545 151.436 33.5397 159.05 17.9729 143.54L7.92529 133.529L10.8971 130.568C6.51013 113.084 16.1332 88.8316 34.9549 70.0783C53.7766 51.3251 78.1174 41.737 95.6654 46.108L98.6372 43.147L108.685 53.1581C124.393 68.5273 116.751 101.522 91.7029 126.479ZM10.7556 133.388L19.3881 141.989C34.2473 156.794 65.947 149.18 90.2878 124.928C114.487 100.817 122.129 69.0913 107.411 54.2861L98.7787 45.685L96.373 48.082L95.8069 47.941C78.8249 43.429 55.0502 52.8761 36.5116 71.3473C17.8314 89.8186 8.49136 113.648 13.0199 130.568L13.1614 131.132L10.7556 133.388Z" fill="#16110D"/>
    <path d="M98.7787 44.4158C114.062 59.644 106.421 91.9334 81.6552 116.468C57.0314 141.002 24.6241 148.616 9.34039 133.388C-5.94336 118.301 1.69852 86.0113 26.4639 61.477C51.0877 36.8017 83.4949 29.1876 98.7787 44.4158Z" fill="#B72126"/>
    <path d="M81.8201 116.646C106.524 92.0323 114.185 59.7589 98.9314 44.5612C83.6783 29.3635 51.287 36.9966 26.5836 61.6103C1.88011 86.2239 -5.78088 118.497 9.47226 133.695C24.7254 148.893 57.1166 141.26 81.8201 116.646Z" fill="white"/>
    <path d="M82.3626 117.173C57.3142 142.13 24.1994 149.744 8.63262 134.234C-6.93417 118.724 0.707706 85.7293 25.7561 60.7719C50.6629 35.8146 83.7777 28.2005 99.486 43.7107C115.053 59.2209 107.411 92.2154 82.3626 117.173ZM27.1712 62.182C2.83045 86.2933 -4.81143 118.019 10.0478 132.683C24.907 147.488 56.6066 139.874 80.9474 115.622C105.147 91.5104 112.789 59.9259 98.0709 45.1207C83.2117 30.3155 51.3705 37.9296 27.1712 62.182Z" fill="#16110D" stroke="black" stroke-width="0.75" stroke-miterlimit="10"/>
    <path d="M73.607 108.441C93.3366 88.7827 100.012 63.562 88.5168 52.1087C77.0217 40.6554 51.7091 47.3065 31.9795 66.9643C12.2499 86.6222 5.57449 111.843 17.0696 123.296C28.5647 134.75 53.8774 128.098 73.607 108.441Z" fill="#CECECE" stroke="black" stroke-width="2" stroke-miterlimit="10" stroke-linecap="round" stroke-linejoin="round"/>
    <path d="M74.2961 109.136C54.2008 129.158 28.3033 135.785 16.4159 123.941C4.52858 112.097 11.1798 86.2933 31.2752 66.271C51.3705 46.2487 77.2679 39.6216 89.1553 51.4658C101.043 63.169 94.3914 89.1133 74.2961 109.136ZM32.6903 67.681C13.4441 86.8573 6.79284 111.533 17.8311 122.531C28.8694 133.529 53.6347 126.902 72.8809 107.726C92.1272 88.4083 98.7784 63.874 87.7401 52.8758C76.7019 41.8777 52.078 48.5048 32.6903 67.681Z" fill="#16110D"/>
    <path d="M31.9826 66.9762C12.3118 86.5755 5.66053 111.815 17.1233 123.236C18.114 124.223 19.3876 125.069 20.5197 125.774C13.0194 113.225 20.0952 90.8056 38.0677 72.8983C56.0403 54.9911 78.5414 47.941 91.1363 55.4141C90.4288 54.1451 89.5797 53.0171 88.5891 52.03C76.9847 40.7499 51.6533 47.377 31.9826 66.9762Z" fill="#CECECE" stroke="black" stroke-width="2" stroke-miterlimit="10" stroke-linecap="round" stroke-linejoin="round"/>
    <path d="M92.1272 57.5294L90.5705 56.4014C78.2586 49.0693 56.0406 56.5424 38.7756 73.7446C21.5106 90.9468 14.0102 113.084 21.3691 125.351L22.5012 127.325L19.9539 126.761C18.3973 125.915 17.2651 124.928 16.2745 124.082C4.52866 112.097 11.1799 86.2937 31.2752 66.2715C51.3705 46.2492 77.268 39.6221 89.1554 51.4663C90.146 52.4533 90.9951 53.5813 91.8442 55.1323L92.1272 57.5294ZM32.6904 67.6815C13.4442 86.8578 6.79292 111.533 17.8312 122.531L17.9727 122.672C13.1611 109.136 20.803 88.8318 37.3604 72.3346C53.9178 55.8373 74.2962 48.2232 87.8817 53.0173L87.7402 52.8763C76.7019 41.8782 52.0781 48.5053 32.6904 67.6815Z" fill="#16110D"/>
    <path d="M78.9661 76.0004C77.1264 74.3084 74.7206 73.4624 71.7488 73.4624L58.7293 64.1562L54.4838 80.7945C51.5119 83.1915 48.9646 85.7295 46.5589 88.6906L30.0015 92.9206L39.3415 105.752C39.3415 108.713 40.1906 111.251 41.8888 113.084L42.0303 113.225L42.7379 113.93L44.1531 113.507L44.4361 113.084C47.8325 108.713 51.3704 105.47 54.6253 103.355C54.6253 103.919 54.9083 104.342 55.1914 104.765C56.3235 105.893 58.3047 105.47 59.7199 103.919C60.569 103.073 61.135 102.086 61.135 101.099C63.2578 101.24 64.8145 102.227 65.9466 104.483C65.8051 105.188 66.0881 105.893 66.5127 106.316C67.6448 107.444 69.626 107.021 71.1827 105.47C72.7394 103.919 73.0224 101.945 72.0318 100.958C71.6072 100.535 70.8997 100.253 70.1921 100.394C68.0693 99.2657 66.9372 97.7147 66.7957 95.5997C67.7863 95.5997 68.7769 95.0357 69.626 94.1896C71.1827 92.6386 71.4657 90.6646 70.4751 89.5366C70.0506 89.1136 69.626 88.9726 69.0599 88.9726C71.0412 85.7295 74.4376 82.2045 78.8246 78.6794L79.2491 78.2564L79.6737 76.8464L79.1076 76.1414L78.9661 76.0004ZM61.8426 76.0004L61.9841 75.4364L62.4087 75.7184C62.2672 75.8594 61.9841 76.0004 61.8426 76.0004ZM41.7473 96.3047L41.4643 95.8817L42.0303 95.7407C41.8888 96.0227 41.7473 96.1637 41.7473 96.3047ZM75.7112 72.6164L38.634 109.559L42.7379 113.648L79.8152 76.7054L75.7112 72.6164Z" fill="black"/>
    <path d="M66.0933 84.913L50.7832 100.167L55.2862 104.654L70.5963 89.3996L66.0933 84.913Z" fill="black"/>
    <path d="M75.4284 73.3215C73.7302 71.7704 71.4659 71.0654 68.6356 71.2064L57.0313 63.0283L52.7858 78.2565C51.2291 79.5255 49.6724 80.7946 48.1158 82.3456C46.5591 83.8966 45.2854 85.4476 44.0118 86.9986L28.728 91.2287L36.936 102.65C36.7945 105.47 37.502 107.867 39.0587 109.559L39.2002 109.7C44.2948 103.355 49.6724 98.7018 54.6255 97.1508C59.2955 95.5998 62.5504 97.2918 64.2486 101.099C64.1071 101.522 64.1071 101.945 64.3901 102.227C64.8147 102.65 65.9468 102.368 66.9374 101.381C67.7865 100.535 68.2111 99.4068 67.7865 98.8428C67.5035 98.5608 67.2204 98.5608 66.6544 98.7018C62.8334 97.0098 61.1353 93.7667 62.6919 89.1137C64.2486 84.1786 69.0602 78.6795 75.4284 73.7445V73.3215C75.5699 73.4625 75.4284 73.4625 75.4284 73.3215ZM38.4927 96.7278L35.3793 92.3567L41.606 90.6647C40.1908 92.7797 39.2002 94.7537 38.4927 96.7278ZM56.6067 75.5775L58.3049 69.3734L62.8334 72.6164C60.8522 73.3215 58.7295 74.3085 56.6067 75.5775Z" fill="white"/>
    <path d="M75.4284 73.3215C73.7302 71.7704 71.4659 71.0654 68.6356 71.2064L57.0313 63.0283L52.7858 78.2565C51.2291 79.5255 49.6724 80.7946 48.1158 82.3456C46.5591 83.8966 45.2854 85.4476 44.0118 86.9986L28.728 91.2287L36.936 102.65C36.7945 105.47 37.502 107.867 39.0587 109.559L39.2002 109.7C44.2948 103.355 49.6724 98.7018 54.6255 97.1508C59.2955 95.5998 62.5504 97.2918 64.2486 101.099C64.1071 101.522 64.1071 101.945 64.3901 102.227C64.8147 102.65 65.9468 102.368 66.9374 101.381C67.7865 100.535 68.2111 99.4068 67.7865 98.8428C67.5035 98.5608 67.2204 98.5608 66.6544 98.7018C62.8334 97.0098 61.1353 93.7667 62.6919 89.1137C64.2486 84.1786 69.0602 78.6795 75.4284 73.7445V73.3215ZM75.4284 73.3215C75.5699 73.4625 75.4284 73.4625 75.4284 73.3215ZM38.4927 96.7278L35.3793 92.3567L41.606 90.6647C40.1908 92.7797 39.2002 94.7537 38.4927 96.7278ZM56.6067 75.5775L58.3049 69.3734L62.8334 72.6164C60.8522 73.3215 58.7295 74.3085 56.6067 75.5775Z" stroke="black" stroke-width="1.0923" stroke-miterlimit="10"/>
    <path d="M53.7764 98.1379C52.9273 98.9839 52.5027 100.112 52.9273 100.676C53.3518 101.099 54.484 100.817 55.4746 99.83C56.3237 98.9839 56.7482 97.8559 56.3237 97.2919C55.7576 96.8689 54.767 97.1509 53.7764 98.1379Z" fill="white"/>
    <path d="M64.107 87.8445C63.2579 88.6905 62.8333 89.8185 63.2579 90.3825C63.6824 90.8055 64.8145 90.5235 65.8051 89.5365C66.7958 88.5495 67.0788 87.5625 66.6542 86.9985C66.0882 86.5755 64.9561 86.9985 64.107 87.8445Z" fill="white"/>
  </g>
  <defs>
    <clipPath id="clip0">
      <rect width="196" height="152" fill="white"/>
    </clipPath>
  </defs>
</svg>
