<svg width="77" height="88" viewBox="0 0 77 88" fill="none" xmlns="http://www.w3.org/2000/svg">
  <path d="M76 21.0664H1V86.4319H76V21.0664Z" fill="white" stroke="black" stroke-width="2" stroke-miterlimit="10" stroke-linecap="round" stroke-linejoin="round"/>
  <path d="M76 21.1497H1L13.7076 4.87061H63.2924L76 21.1497Z" fill="#CECECE" stroke="black" stroke-width="2" stroke-miterlimit="10" stroke-linecap="round" stroke-linejoin="round"/>
  <path d="M38.4585 21.0665V5.11963" stroke="black" stroke-width="2" stroke-miterlimit="10" stroke-linecap="round" stroke-linejoin="round"/>
  <path d="M76 64.3389H1V78.9568H76V64.3389Z" fill="#CECECE" stroke="black" stroke-width="2" stroke-miterlimit="10" stroke-linecap="round" stroke-linejoin="round"/>
  <path d="M6.56479 70.485L6.64785 69.5713L7.14619 70.0697C6.89702 70.2358 6.73091 70.4019 6.56479 70.485ZM9.47177 69.6544L9.55483 70.568C9.38871 70.4019 9.2226 70.3188 8.97343 70.1527L9.47177 69.6544ZM8.47509 72.4783C8.89038 72.063 9.47177 71.98 10.2193 72.1461C10.2193 71.7308 10.1362 71.3986 9.97011 71.0664L9.804 68.6577L8.64121 69.9866C8.47509 69.9036 8.30898 69.9036 8.14287 69.9036C7.97675 69.9036 7.81064 69.9036 7.64453 69.9866L6.48174 68.6577L6.31562 70.9833C6.14951 71.3155 6.06645 71.6477 5.9834 72.063C6.64785 71.8969 7.3123 71.98 7.72758 72.3953C8.14287 72.8105 8.22592 73.3919 8.05981 74.1394L8.22592 74.3056L8.39204 74.1394C7.97675 73.558 8.14287 72.8936 8.47509 72.4783Z" fill="black"/>
  <path d="M7.56147 72.7276C7.56147 72.8107 7.47842 72.8938 7.39536 72.8938C7.3123 72.8938 7.22925 72.8107 7.22925 72.7276C7.22925 72.6446 7.3123 72.5615 7.39536 72.5615C7.47842 72.5615 7.56147 72.6446 7.56147 72.7276Z" fill="black"/>
  <path d="M8.80732 72.7276C8.80732 72.8107 8.72427 72.8938 8.64121 72.8938C8.55815 72.8938 8.4751 72.8107 8.4751 72.7276C8.4751 72.6446 8.55815 72.5615 8.64121 72.5615C8.72427 72.5615 8.80732 72.6446 8.80732 72.7276Z" fill="black"/>
  <path d="M8.22578 74.3056C8.22578 74.3887 8.14272 74.4717 8.05967 74.4717C7.97661 74.4717 7.89355 74.3887 7.89355 74.3056C7.89355 74.2226 7.97661 74.1395 8.05967 74.1395C8.14272 74.0565 8.22578 74.1395 8.22578 74.3056Z" fill="black"/>
  <path d="M15.1196 73.2256H14.2891V69.9033H16.2824V70.6508H15.1196V71.3153H16.1163V72.0628H15.1196V73.2256Z" fill="black"/>
  <path d="M19.854 71.5644C19.854 72.1458 19.6878 72.5611 19.4387 72.8103C19.1895 73.1425 18.7742 73.2256 18.1928 73.2256C17.6945 73.2256 17.2792 73.0595 17.03 72.8103C16.7809 72.4781 16.6147 72.0628 16.6147 71.5644C16.6147 70.9831 16.7809 70.5678 17.03 70.3186C17.2792 69.9864 17.6945 69.9033 18.2759 69.9033C18.7742 69.9033 19.1895 70.0694 19.4387 70.3186C19.7709 70.5678 19.854 70.9831 19.854 71.5644ZM17.6114 71.5644C17.6114 72.2289 17.8606 72.5611 18.2759 72.5611C18.525 72.5611 18.6912 72.4781 18.7742 72.312C18.8573 72.1458 18.9403 71.8967 18.9403 71.5644C18.9403 71.2322 18.8573 70.9831 18.7742 70.8169C18.6912 70.6508 18.525 70.5678 18.2759 70.5678C17.8606 70.5678 17.6114 70.9 17.6114 71.5644Z" fill="black"/>
  <path d="M23.5083 73.2256H22.4286L21.7642 72.1458L21.1828 73.2256H20.103L21.1828 71.5644L20.1861 69.9033H21.1828L21.7642 70.9L22.3456 69.9033H23.4253L22.3456 71.5644L23.5083 73.2256Z" fill="black"/>
  <path d="M26.2492 70.9C26.2492 71.2322 26.1662 71.5644 25.917 71.7306C25.6678 71.8967 25.4186 72.0628 25.0034 72.0628H24.7542V73.2256H23.8406V69.9033H25.0034C25.4186 69.9033 25.7509 69.9864 25.917 70.1525C26.1662 70.3186 26.2492 70.5678 26.2492 70.9ZM24.7542 71.3983H24.9203C25.0864 71.3983 25.1695 71.3983 25.2525 71.3153C25.3356 71.2322 25.3356 71.1492 25.3356 70.9831C25.3356 70.7339 25.2525 70.6508 25.0034 70.6508H24.7542V71.3983Z" fill="black"/>
  <path d="M29.9037 71.5644C29.9037 72.1458 29.7376 72.5611 29.4884 72.8103C29.2393 73.0595 28.824 73.2256 28.3256 73.2256C27.8273 73.2256 27.412 73.0595 27.1628 72.8103C26.9137 72.4781 26.7476 72.0628 26.7476 71.5644C26.7476 70.9831 26.9137 70.5678 27.1628 70.3186C27.412 69.9864 27.8273 69.9033 28.4087 69.9033C28.907 69.9033 29.3223 70.0694 29.5715 70.3186C29.7376 70.5678 29.9037 70.9831 29.9037 71.5644ZM27.6612 71.5644C27.6612 72.2289 27.9104 72.5611 28.3256 72.5611C28.5748 72.5611 28.7409 72.4781 28.824 72.312C28.907 72.1458 28.9901 71.8967 28.9901 71.5644C28.9901 71.2322 28.907 70.9831 28.824 70.8169C28.7409 70.6508 28.5748 70.5678 28.3256 70.5678C27.8273 70.5678 27.6612 70.9 27.6612 71.5644Z" fill="black"/>
  <path d="M32.6444 72.229C32.6444 72.3951 32.5614 72.6443 32.4783 72.8104C32.3953 72.9765 32.2291 73.0596 32.063 73.1426C31.8969 73.2257 31.6478 73.2257 31.3986 73.2257C31.1494 73.2257 30.9833 73.2257 30.8172 73.1426C30.6511 73.1426 30.485 73.0596 30.3188 72.9765V72.1459C30.485 72.229 30.6511 72.3121 30.8172 72.3121C30.9833 72.3951 31.1494 72.3951 31.3155 72.3951C31.4816 72.3951 31.5647 72.3951 31.6478 72.3121C31.7308 72.229 31.7308 72.229 31.7308 72.1459C31.7308 72.0629 31.7308 72.0629 31.7308 72.0629L31.6478 71.9798C31.5647 71.9798 31.4816 71.8968 31.2325 71.7307C30.9833 71.6476 30.8172 71.5645 30.7341 71.4815C30.6511 71.3984 30.568 71.3154 30.485 71.1493C30.4019 71.0662 30.4019 70.9001 30.4019 70.734C30.4019 70.4018 30.485 70.1526 30.7341 69.9865C30.9833 69.8204 31.2325 69.7373 31.6478 69.7373C31.98 69.7373 32.3122 69.8204 32.7275 69.9865L32.3953 70.734C32.063 70.5679 31.8139 70.4848 31.5647 70.4848C31.4816 70.4848 31.3986 70.4848 31.3155 70.5679C31.2325 70.5679 31.2325 70.6509 31.2325 70.734C31.2325 70.817 31.2325 70.817 31.3155 70.9001C31.3986 70.9831 31.5647 71.0662 31.8969 71.1493C32.1461 71.3154 32.3953 71.3984 32.4783 71.5645C32.6444 71.8137 32.6444 71.9798 32.6444 72.229Z" fill="black"/>
  <path d="M34.6377 73.2256H33.7241V70.6508H32.8936V69.9033H35.3852V70.6508H34.5547V73.2256H34.6377Z" fill="black"/>
  <path d="M41.6976 70.485L41.7806 69.5713L42.279 70.0697C42.0298 70.2358 41.8637 70.4019 41.6976 70.485ZM44.6045 69.6544L44.6876 70.568C44.5215 70.4019 44.3554 70.3188 44.1062 70.1527L44.6045 69.6544ZM43.6909 72.4783C44.1062 72.063 44.6876 71.98 45.4351 72.1461C45.4351 71.7308 45.352 71.3986 45.1859 71.0664L45.0198 68.6577L43.857 69.9866C43.6909 69.9036 43.5248 69.9036 43.3587 69.9036C43.1926 69.9036 43.0265 69.9036 42.8603 69.9866L41.6976 68.6577L41.5314 70.9833C41.3653 71.3155 41.2823 71.6477 41.1992 72.063C41.8637 71.8969 42.5281 71.98 42.9434 72.3953C43.3587 72.8105 43.4417 73.3919 43.2756 74.1394L43.4417 74.3056L43.6079 74.1394C43.1926 73.558 43.2756 72.8936 43.6909 72.4783Z" fill="black"/>
  <path d="M42.7773 72.7276C42.7773 72.8107 42.6942 72.8938 42.6112 72.8938C42.5281 72.8938 42.4451 72.8107 42.4451 72.7276C42.4451 72.6446 42.5281 72.5615 42.6112 72.5615C42.6942 72.5615 42.7773 72.6446 42.7773 72.7276Z" fill="black"/>
  <path d="M44.0231 72.7276C44.0231 72.8107 43.9401 72.8938 43.857 72.8938C43.774 72.8938 43.6909 72.8107 43.6909 72.7276C43.6909 72.6446 43.774 72.5615 43.857 72.5615C43.9401 72.5615 44.0231 72.6446 44.0231 72.7276Z" fill="black"/>
  <path d="M43.3586 74.3056C43.3586 74.3887 43.2755 74.4717 43.1925 74.4717C43.1094 74.4717 43.0264 74.3887 43.0264 74.3056C43.0264 74.2226 43.1094 74.1395 43.1925 74.1395C43.2755 74.0565 43.3586 74.1395 43.3586 74.3056Z" fill="black"/>
  <path d="M50.3355 73.2256H49.4219V69.9033H51.4152V70.6508H50.3355V71.3153H51.3322V72.0628H50.3355V73.2256Z" fill="black"/>
  <path d="M55.0698 71.5644C55.0698 72.1458 54.9037 72.5611 54.6545 72.8103C54.4053 73.1425 53.99 73.2256 53.4086 73.2256C52.9103 73.2256 52.495 73.0595 52.2458 72.8103C51.9967 72.4781 51.8306 72.0628 51.8306 71.5644C51.8306 70.9831 51.9967 70.5678 52.2458 70.3186C52.495 69.9864 52.9103 69.9033 53.4917 69.9033C53.99 69.9033 54.4053 70.0694 54.6545 70.3186C54.9037 70.5678 55.0698 70.9831 55.0698 71.5644ZM52.7442 71.5644C52.7442 72.2289 52.9934 72.5611 53.4086 72.5611C53.6578 72.5611 53.8239 72.4781 53.907 72.312C53.99 72.1458 54.0731 71.8967 54.0731 71.5644C54.0731 71.2322 53.99 70.9831 53.907 70.8169C53.8239 70.6508 53.6578 70.5678 53.4086 70.5678C52.9934 70.5678 52.7442 70.9 52.7442 71.5644Z" fill="black"/>
  <path d="M58.6411 73.2256H57.5614L56.8969 72.1458L56.3155 73.2256H55.3188L56.3986 71.5644L55.4019 69.9033H56.3986L56.98 70.9L57.5614 69.9033H58.5581L57.4783 71.5644L58.6411 73.2256Z" fill="black"/>
  <path d="M61.4653 70.9C61.4653 71.2322 61.3822 71.5644 61.1331 71.7306C60.8839 71.8967 60.6347 72.0628 60.2194 72.0628H59.9703V73.2256H59.0566V69.9033H60.2194C60.6347 69.9033 60.9669 69.9864 61.1331 70.1525C61.2992 70.3186 61.4653 70.5678 61.4653 70.9ZM59.8872 71.3983H60.0533C60.2194 71.3983 60.3025 71.3983 60.3855 71.3153C60.4686 71.2322 60.4686 71.1492 60.4686 70.9831C60.4686 70.7339 60.3855 70.6508 60.1364 70.6508H59.8872V71.3983Z" fill="black"/>
  <path d="M65.0366 71.5644C65.0366 72.1458 64.8705 72.5611 64.6213 72.8103C64.3721 73.1425 63.9568 73.2256 63.3754 73.2256C62.8771 73.2256 62.4618 73.0595 62.2126 72.8103C61.9635 72.4781 61.7974 72.0628 61.7974 71.5644C61.7974 70.9831 61.9635 70.5678 62.2126 70.3186C62.4618 69.9864 62.8771 69.9033 63.4585 69.9033C63.9568 69.9033 64.3721 70.0694 64.6213 70.3186C64.9535 70.5678 65.0366 70.9831 65.0366 71.5644ZM62.794 71.5644C62.794 72.2289 63.0432 72.5611 63.4585 72.5611C63.7077 72.5611 63.8738 72.4781 63.9568 72.312C64.0399 72.1458 64.1229 71.8967 64.1229 71.5644C64.1229 71.2322 64.0399 70.9831 63.9568 70.8169C63.8738 70.6508 63.7077 70.5678 63.4585 70.5678C63.0432 70.5678 62.794 70.9 62.794 71.5644Z" fill="black"/>
  <path d="M67.8603 72.229C67.8603 72.3951 67.7772 72.6443 67.6942 72.8104C67.6111 72.9765 67.445 73.0596 67.2789 73.1426C67.1128 73.2257 66.7806 73.2257 66.5314 73.2257C66.2822 73.2257 66.1161 73.2257 65.95 73.1426C65.7839 73.1426 65.6178 73.0596 65.4517 72.9765V72.1459C65.6178 72.229 65.7839 72.3121 65.95 72.3121C66.1161 72.3951 66.2822 72.3951 66.4483 72.3951C66.6145 72.3951 66.6975 72.3951 66.7806 72.3121C66.8636 72.229 66.8636 72.229 66.8636 72.1459C66.8636 72.0629 66.8636 72.0629 66.8636 72.0629L66.7806 71.9798C66.6975 71.9798 66.6144 71.8968 66.3653 71.7307C66.1161 71.6476 65.95 71.5645 65.8669 71.4815C65.7839 71.3984 65.7008 71.3154 65.6178 71.1493C65.5347 71.0662 65.5347 70.9001 65.5347 70.734C65.5347 70.4018 65.6178 70.1526 65.8669 69.9865C66.1161 69.8204 66.3653 69.7373 66.7806 69.7373C67.1128 69.7373 67.445 69.8204 67.8603 69.9865L67.6111 70.734C67.2789 70.5679 67.0297 70.4848 66.7806 70.4848C66.6975 70.4848 66.6145 70.4848 66.5314 70.5679C66.4483 70.5679 66.4483 70.6509 66.4483 70.734C66.4483 70.817 66.4483 70.817 66.5314 70.9001C66.6145 70.9831 66.7806 71.0662 67.1128 71.1493C67.362 71.3154 67.6111 71.3984 67.6942 71.5645C67.7772 71.8137 67.8603 71.9798 67.8603 72.229Z" fill="black"/>
  <path d="M69.8538 73.2256H68.9402V70.6508H68.1096V69.9033H70.6013V70.6508H69.7707V73.2256H69.8538Z" fill="black"/>
  <path d="M23.4253 26.3823H33.0598" stroke="black" stroke-width="2" stroke-miterlimit="10" stroke-linecap="round" stroke-linejoin="round"/>
  <path d="M23.4253 30.4521H42.6944" stroke="black" stroke-width="2" stroke-miterlimit="10" stroke-linecap="round" stroke-linejoin="round"/>
  <path d="M35.6345 26.3823H40.4518" stroke="black" stroke-width="2" stroke-miterlimit="10" stroke-linecap="round" stroke-linejoin="round"/>
  <path d="M43.0266 26.3823H45.9336" stroke="black" stroke-width="2" stroke-miterlimit="10" stroke-linecap="round" stroke-linejoin="round"/>
  <path d="M13.1262 55.8673C11.4651 54.6215 11.0498 52.2959 12.2957 50.5517L23.4252 35.2693C24.6711 33.6082 26.9967 33.1929 28.7409 34.4387C30.402 35.6846 30.8173 38.0102 29.5714 39.7544L18.4419 55.0368C17.196 56.7809 14.8704 57.1132 13.1262 55.8673Z" fill="#CECECE" stroke="black" stroke-width="2" stroke-miterlimit="10" stroke-linecap="round" stroke-linejoin="round"/>
  <path d="M50.2525 4.95372C41.0332 -1.77386 28.0764 0.302554 21.3488 9.52182C14.6212 18.7411 16.6146 31.6979 25.9169 38.3424C35.2192 44.9869 48.093 42.9936 54.8206 33.7743C61.5481 24.555 59.4717 11.6813 50.2525 4.95372ZM29.8206 33.0268C23.5083 28.4587 22.1794 19.6547 26.7475 13.4255C31.3156 7.11319 40.1196 5.78428 46.3488 10.3524C52.578 14.9205 53.99 23.7245 49.4219 29.9537C44.8538 36.1829 36.0498 37.5949 29.8206 33.0268Z" fill="white" stroke="black" stroke-width="2" stroke-miterlimit="10" stroke-linecap="round" stroke-linejoin="round"/>
</svg>
