<svg width="44" height="57" viewBox="0 0 44 57" fill="none" xmlns="http://www.w3.org/2000/svg">
  <path d="M7.22467 18.1719L8.00073 9.04302L12.9177 14.516C14.184 13.9619 15.5001 13.5293 16.8482 13.2239L4.97047 0L2.98242 23.3582C4.11464 21.4169 5.54636 19.6665 7.22467 18.1719Z" fill="white"/>
  <path d="M35.7805 9.04415L36.5702 18.3403C38.249 19.8624 39.6824 21.6349 40.8195 23.595L38.8134 0.000488281L26.917 13.2451C28.2574 13.5593 29.5646 14.0011 30.8209 14.5642L35.7805 9.04415Z" fill="white"/>
  <path d="M16.9767 37.4684C13.0753 33.5658 6.92119 32.6367 0.0142054 34.2167C0.0116226 34.32 0 34.4194 0 34.5227L20.1315 54.8522C21.851 47.7747 20.958 41.4501 16.9767 37.4687" fill="white"/>
  <path d="M43.7519 34.2592C36.7687 32.6185 30.5383 33.5296 26.6009 37.4683C22.5897 41.4788 21.7084 47.8654 23.4789 55.0088L43.7681 34.522C43.7681 34.4335 43.7539 34.3483 43.7519 34.2592Z" fill="white"/>
  <path d="M17.4123 39.6155C17.4125 40.0115 17.2953 40.3986 17.0755 40.728C16.8557 41.0573 16.5431 41.3141 16.1774 41.4658C15.8116 41.6175 15.4091 41.6574 15.0207 41.5803C14.6323 41.5033 14.2754 41.3128 13.9953 41.0329C13.7152 40.7531 13.5243 40.3964 13.4469 40.0081C13.3694 39.6198 13.4089 39.2172 13.5602 38.8513C13.7116 38.4854 13.968 38.1726 14.2972 37.9525C14.6263 37.7323 15.0133 37.6147 15.4093 37.6145C15.9401 37.6146 16.4492 37.8254 16.8248 38.2006C17.2003 38.5758 17.4116 39.0847 17.4123 39.6155Z" fill="black"/>
  <path d="M30.2078 39.6155C30.208 40.0116 30.0908 40.3988 29.871 40.7282C29.6511 41.0577 29.3385 41.3145 28.9727 41.4663C28.6069 41.618 28.2043 41.6579 27.8158 41.5809C27.4274 41.5038 27.0705 41.3133 26.7903 41.0334C26.5101 40.7534 26.3192 40.3967 26.2418 40.0083C26.1643 39.6199 26.2038 39.2173 26.3552 38.8513C26.5066 38.4853 26.7632 38.1725 27.0924 37.9524C27.4216 37.7322 27.8087 37.6146 28.2048 37.6145C28.7357 37.6144 29.2449 37.8252 29.6205 38.2004C29.9961 38.5756 30.2073 39.0846 30.2078 39.6155Z" fill="black"/>
  <path d="M23.7868 54.9995C23.7866 55.3955 23.6691 55.7825 23.449 56.1116C23.2288 56.4407 22.9161 56.6972 22.5502 56.8486C22.1843 57 21.7818 57.0395 21.3935 56.9621C21.0052 56.8847 20.6485 56.6939 20.3686 56.4138C20.0888 56.1338 19.8982 55.777 19.8211 55.3886C19.7439 55.0003 19.7837 54.5978 19.9353 54.232C20.0869 53.8662 20.3436 53.5536 20.6729 53.3337C21.0021 53.1138 21.3892 52.9965 21.7852 52.9966C22.3162 52.9969 22.8253 53.208 23.2007 53.5836C23.576 53.9592 23.7869 54.4685 23.7868 54.9995Z" fill="black"/>
</svg>
