<svg width="115" height="115" viewBox="0 0 115 115" fill="none" xmlns="http://www.w3.org/2000/svg">
<rect width="115" height="115" fill="#B70100"/>
<g clip-path="url(#clip0)">
<path d="M45.4602 38.2591L46.1544 30.0911L50.5532 34.988C51.6861 34.4922 52.8634 34.1051 54.0694 33.8319L43.4436 22L41.665 42.8994C42.6779 41.1624 43.9588 39.5964 45.4602 38.2591Z" fill="white"/>
<path d="M71.0065 30.0922L71.713 38.4098C73.2148 39.7716 74.4971 41.3576 75.5144 43.1113L73.7197 22.0005L63.0771 33.8509C64.2763 34.1321 65.4457 34.5273 66.5696 35.0312L71.0065 30.0922Z" fill="white"/>
<path d="M54.1845 55.5244C50.6943 52.0326 45.1888 51.2012 39.0098 52.6149C39.0075 52.7074 38.9971 52.7963 38.9971 52.8888L57.0069 71.0783C58.5451 64.7458 57.7463 59.0869 54.1845 55.5246" fill="white"/>
<path d="M78.1379 52.6531C71.8906 51.1851 66.3169 52.0003 62.7945 55.5244C59.2061 59.1127 58.4176 64.8271 60.0015 71.2185L78.1523 52.8882C78.1523 52.8091 78.1396 52.7328 78.1379 52.6531Z" fill="white"/>
<path d="M54.5748 57.4454C54.575 57.7997 54.4701 58.1461 54.2734 58.4408C54.0767 58.7355 53.7971 58.9652 53.4698 59.101C53.1426 59.2367 52.7824 59.2724 52.4349 59.2034C52.0874 59.1345 51.7681 58.964 51.5175 58.7136C51.2668 58.4632 51.0961 58.1441 51.0268 57.7967C50.9575 57.4492 50.9928 57.089 51.1282 56.7617C51.2636 56.4343 51.4931 56.1544 51.7876 55.9574C52.0821 55.7604 52.4283 55.6552 52.7826 55.655C53.2576 55.6552 53.7131 55.8438 54.0491 56.1794C54.3851 56.5151 54.5742 56.9705 54.5748 57.4454Z" fill="black"/>
<path d="M66.0216 57.4454C66.0218 57.7998 65.9169 58.1462 65.7202 58.441C65.5235 58.7358 65.2439 58.9656 64.9165 59.1014C64.5892 59.2372 64.229 59.2728 63.8814 59.2039C63.5338 59.1349 63.2145 58.9645 62.9638 58.714C62.7131 58.4636 62.5423 58.1444 62.4731 57.7969C62.4038 57.4493 62.4391 57.0891 62.5746 56.7616C62.7101 56.4342 62.9396 56.1543 63.2342 55.9573C63.5287 55.7603 63.8751 55.6551 64.2294 55.655C64.7045 55.655 65.1601 55.8435 65.4961 56.1792C65.8322 56.515 66.0212 56.9704 66.0216 57.4454Z" fill="black"/>
<path d="M60.2779 71.2101C60.2778 71.5644 60.1726 71.9106 59.9756 72.2051C59.7787 72.4996 59.4988 72.7291 59.1715 72.8645C58.8441 72.9999 58.484 73.0353 58.1365 72.9661C57.7891 72.8968 57.47 72.7261 57.2196 72.4755C56.9691 72.2249 56.7986 71.9057 56.7296 71.5582C56.6606 71.2108 56.6962 70.8506 56.8318 70.5233C56.9675 70.1961 57.1972 69.9164 57.4918 69.7196C57.7864 69.5229 58.1327 69.4179 58.487 69.418C58.9621 69.4182 59.4177 69.6072 59.7535 69.9432C60.0893 70.2793 60.278 70.735 60.2779 71.2101Z" fill="black"/>
</g>
<g clip-path="url(#clip1)">
<path d="M24.098 83.7506H19.5158V85.7496H23.848V88.2165H19.5158V92.8331H16V81.1667H24.5147L24.098 83.7506Z" fill="white"/>
<path d="M32.1793 92.9999C29.6965 92.9999 27.0137 92.1668 27.0137 87.0004C27.0137 81.7504 29.8799 81 32.1793 81C34.6122 81 37.3449 81.9006 37.3449 87.0004C37.3449 92.3835 34.4459 92.9999 32.1793 92.9999ZM32.1793 83.4171C30.8796 83.4171 30.5133 84.4664 30.5133 87.0004C30.5133 89.5002 30.863 90.5833 32.1793 90.5833C33.429 90.5833 33.8457 89.6832 33.8457 87.0004C33.8457 84.5672 33.5126 83.4171 32.1793 83.4171Z" fill="white"/>
<path d="M46.0273 92.8335L44.6773 89.167L43.3107 92.8335H39.2617L42.3945 87.017L39.4285 81.1672H43.5278L44.6773 85.0176L45.8272 81.1672H49.9261L46.9767 87.017L50.0929 92.8335H46.0273Z" fill="white"/>
<path d="M56.5135 89.5998V92.8335H53.0146V81.167H56.8802C59.6129 81.167 62.3453 81.5838 62.3453 85.1509C62.3453 88.5 60.0962 89.5332 56.5134 89.5998H56.5135ZM56.9468 83.634H56.5134V87.2834C58.4302 87.1503 58.8465 86.6499 58.8465 85.217C58.8465 83.9339 58.2967 83.634 56.9468 83.634Z" fill="white"/>
<path d="M70.0059 92.9999C67.5222 92.9999 64.8398 92.1668 64.8398 87.0004C64.8398 81.7504 67.7061 81 70.0059 81C72.4379 81 75.1706 81.9006 75.1706 87.0004C75.1706 92.3835 72.2716 92.9999 70.0059 92.9999ZM70.0059 83.4171C68.7059 83.4171 68.339 84.4664 68.339 87.0004C68.339 89.5002 68.6892 90.5833 70.0059 90.5833C71.2552 90.5833 71.6719 89.6832 71.6719 87.0004C71.6719 84.5672 71.3384 83.4171 70.0059 83.4171Z" fill="white"/>
<path d="M81.9529 92.9999C80.6791 92.9588 79.4172 92.74 78.2038 92.3498V89.7003C78.2038 89.7003 80.6371 90.3994 81.6194 90.3994C82.6529 90.3994 83.2525 90.2497 83.2525 89.5829C83.2525 88.9499 82.7864 88.6999 82.1368 88.4832L81.4027 88.2332C79.9368 87.7333 78.0869 87.1668 78.0869 84.4835C78.0869 81.634 80.6529 81 82.803 81C84.0082 80.977 85.2033 81.2221 86.3022 81.7176V84.3001C86.3022 84.3001 84.3188 83.5672 83.0525 83.5672C82.1862 83.5672 81.5533 83.6666 81.5533 84.3671C81.5533 84.9664 82.0361 85.1669 82.7194 85.3836L83.5025 85.6336C84.9689 86.1003 86.7522 86.7671 86.7522 89.3001C86.7522 92.6663 84.2357 92.9999 81.9529 92.9999Z" fill="white"/>
<path d="M98.5829 83.8338H95.7504V92.8335H92.2512V83.8338H89.002V81.1672H98.9997L98.5829 83.8338Z" fill="white"/>
</g>
<defs>
<clipPath id="clip0">
<rect x="38.9971" y="22" width="39.1552" height="51" fill="white"/>
</clipPath>
<clipPath id="clip1">
<rect x="16" y="81" width="83" height="12" fill="white"/>
</clipPath>
</defs>
</svg>
