<svg width="25" height="24" viewBox="0 0 25 24" fill="none" xmlns="http://www.w3.org/2000/svg">
  <g clip-path="url(#clip0)">
    <path d="M17.5998 17.6004L0.299805 23.4004V8.70039L17.5998 2.90039V17.6004Z" fill="#CECECE" stroke="black" stroke-width="0.5448" stroke-miterlimit="10" stroke-linecap="round" stroke-linejoin="round"/>
    <path d="M5.64763 2.11686L2.45703 19.0176L12.8726 20.9839L16.0632 4.08316L5.64763 2.11686Z" fill="white" stroke="black" stroke-width="0.5448" stroke-miterlimit="10" stroke-linecap="round" stroke-linejoin="round"/>
    <path d="M11.9134 12.0509C12.1387 10.857 11.1337 9.66496 9.66844 9.38835C8.20322 9.11174 6.83271 9.85533 6.60732 11.0492C6.38193 12.2431 7.38702 13.4352 8.85224 13.7118C10.3175 13.9884 11.688 13.2448 11.9134 12.0509Z" fill="#CECECE" stroke="black" stroke-width="0.5448" stroke-miterlimit="10" stroke-linecap="round" stroke-linejoin="round"/>
    <path d="M15.6998 6.29922C14.4998 6.09922 13.6998 4.89922 13.8998 3.69922L15.6998 6.29922Z" fill="white"/>
    <path d="M15.6998 6.29922C14.4998 6.09922 13.6998 4.89922 13.8998 3.69922" stroke="black" stroke-width="0.5448" stroke-miterlimit="10" stroke-linecap="round" stroke-linejoin="round"/>
    <path d="M5.19922 4.3C6.39922 4.5 7.59922 3.7 7.79922 2.5L5.19922 4.3Z" fill="white"/>
    <path d="M5.19922 4.3C6.39922 4.5 7.59922 3.7 7.79922 2.5" stroke="black" stroke-width="0.5448" stroke-miterlimit="10" stroke-linecap="round" stroke-linejoin="round"/>
    <path d="M13.2992 18.8998C12.0992 18.6998 10.8992 19.4998 10.6992 20.6998" stroke="black" stroke-width="0.5448" stroke-miterlimit="10" stroke-linecap="round" stroke-linejoin="round"/>
    <path d="M2.89941 16.9004C4.09941 17.1004 4.89941 18.3004 4.69941 19.5004" stroke="black" stroke-width="0.5448" stroke-miterlimit="10" stroke-linecap="round" stroke-linejoin="round"/>
    <path d="M12.9548 0.232119L4.79688 15.375L14.1291 20.4026L22.2871 5.2597L12.9548 0.232119Z" fill="white" stroke="black" stroke-width="0.5448" stroke-miterlimit="10" stroke-linecap="round" stroke-linejoin="round"/>
    <path d="M16.5356 11.931C17.2428 10.6182 16.5154 8.8532 14.9109 7.98876C13.3063 7.12433 11.4322 7.48783 10.7249 8.80065C10.0177 10.1135 10.7451 11.8785 12.3497 12.7429C13.9542 13.6074 15.8283 13.2439 16.5356 11.931Z" fill="white" stroke="black" stroke-width="0.5448" stroke-miterlimit="10" stroke-linecap="round" stroke-linejoin="round"/>
    <path d="M21.2998 7.30078C20.1998 6.70078 19.7998 5.40078 20.3998 4.30078" stroke="black" stroke-width="0.5448" stroke-miterlimit="10" stroke-linecap="round" stroke-linejoin="round"/>
    <path d="M11.8994 2.20078C12.9994 2.80078 14.2994 2.40078 14.8994 1.30078L11.8994 2.20078Z" fill="white"/>
    <path d="M11.8994 2.20078C12.9994 2.80078 14.2994 2.40078 14.8994 1.30078" stroke="black" stroke-width="0.5448" stroke-miterlimit="10" stroke-linecap="round" stroke-linejoin="round"/>
    <path d="M15.1992 18.4994C14.0992 17.8994 12.7992 18.2994 12.1992 19.3994" stroke="black" stroke-width="0.5448" stroke-miterlimit="10" stroke-linecap="round" stroke-linejoin="round"/>
    <path d="M5.89941 13.5C6.99941 14.1 7.39941 15.4 6.79941 16.5" stroke="black" stroke-width="0.5448" stroke-miterlimit="10" stroke-linecap="round" stroke-linejoin="round"/>
    <path d="M21.2998 23.3992H0.299805V8.69922H21.2998C21.8998 8.69922 22.3998 9.19922 22.3998 9.79922V22.1992C22.3998 22.8992 21.8998 23.3992 21.2998 23.3992Z" fill="white" stroke="black" stroke-width="0.5448" stroke-miterlimit="10" stroke-linecap="round" stroke-linejoin="round"/>
    <path d="M23.9002 14.0996H17.7002V18.5996H23.9002V14.0996Z" fill="white" stroke="black" stroke-width="0.5448" stroke-miterlimit="10" stroke-linecap="round" stroke-linejoin="round"/>
    <path d="M19.9998 17.0992C20.3864 17.0992 20.6998 16.7858 20.6998 16.3992C20.6998 16.0126 20.3864 15.6992 19.9998 15.6992C19.6132 15.6992 19.2998 16.0126 19.2998 16.3992C19.2998 16.7858 19.6132 17.0992 19.9998 17.0992Z" fill="#CECECE" stroke="black" stroke-width="0.5448" stroke-miterlimit="10" stroke-linecap="round" stroke-linejoin="round"/>
    <path d="M9.69941 15.2992C10.1412 15.2992 10.4994 14.7172 10.4994 13.9992C10.4994 13.2812 10.1412 12.6992 9.69941 12.6992C9.25759 12.6992 8.89941 13.2812 8.89941 13.9992C8.89941 14.7172 9.25759 15.2992 9.69941 15.2992Z" fill="black"/>
    <path d="M12.799 15.2992C13.2409 15.2992 13.599 14.7172 13.599 13.9992C13.599 13.2812 13.2409 12.6992 12.799 12.6992C12.3572 12.6992 11.999 13.2812 11.999 13.9992C11.999 14.7172 12.3572 15.2992 12.799 15.2992Z" fill="black"/>
    <path d="M8.09961 17.5996C8.69961 18.4996 9.89961 19.1996 11.2996 19.1996C12.6996 19.1996 13.8996 18.5996 14.4996 17.5996" stroke="black" stroke-width="0.5448" stroke-miterlimit="10" stroke-linecap="round" stroke-linejoin="round"/>
  </g>
  <defs>
    <clipPath id="clip0">
      <rect width="24.1" height="23.7" fill="white"/>
    </clipPath>
  </defs>
</svg>
